<svg width="50" height="47" viewBox="0 0 50 47" fill="none" xmlns="http://www.w3.org/2000/svg">
<path opacity="0.15" fill-rule="evenodd" clip-rule="evenodd" d="M48.0614 22.1728C47.8044 22.0708 47.5085 22.1272 47.3117 22.3156L45.2516 24.2897V10.8678C45.2516 10.5037 44.9437 10.2086 44.5637 10.2086H39.2786L41.1971 8.37031L41.1979 8.36943L43.0465 6.5981C43.4426 6.21859 43.6608 5.71376 43.6608 5.17698C43.6608 4.64022 43.4426 4.13555 43.0465 3.75587L40.9089 1.70757C40.5129 1.32805 39.986 1.11905 39.4257 1.11905C38.8656 1.11905 38.3388 1.32805 37.9427 1.70757L36.0932 3.47977L33.8584 5.62122L29.071 10.2086H7.71945V3.68798C7.71945 3.32391 7.41145 3.02887 7.03159 3.02887C4.04856 3.02905 1.62158 5.35442 1.62158 8.21296V36.2078C1.62158 36.2565 1.62744 36.3038 1.63788 36.3495C1.73288 37.5624 2.28052 38.6893 3.19575 39.5448C4.17405 40.4591 5.46548 40.9625 6.83223 40.9625H27.8514L23.8928 44.7559C23.6961 44.9443 23.6373 45.2277 23.7436 45.4741C23.8501 45.7204 24.101 45.881 24.3792 45.881H47.7982C48.178 45.881 48.486 45.586 48.486 45.2218V22.7818C48.486 22.5152 48.3184 22.2749 48.0614 22.1728ZM38.9156 2.6398C39.1968 2.37019 39.655 2.37019 39.9362 2.6398L42.0739 4.6882C42.3552 4.95772 42.3552 5.39652 42.0739 5.66613L40.7109 6.97226L37.5525 3.94593L38.9156 2.6398ZM36.5797 4.87808L39.738 7.90432L38.4759 9.11372L35.3177 6.08747L36.5797 4.87808ZM22.0037 24.3505L20.0334 25.017L18.7206 23.7591L19.4162 21.8711L22.0037 24.3505ZM42.4279 33.7625L35.7982 40.0947C35.7244 40.1652 35.7766 40.2857 35.881 40.2857H42.6279V33.8416C42.6279 33.7419 42.5017 33.692 42.4279 33.7625ZM19.1957 20.7024L23.2963 24.619L38.5272 10.0714L34.4266 6.15476L19.1957 20.7024Z" fill="url(#paint0_linear_8_519)"/>
<path d="M43.0963 32.7376C42.8392 32.6356 42.5434 32.692 42.3467 32.8804L34.8295 40.0835C34.6328 40.2721 34.5739 40.5555 34.6805 40.8018C34.7869 41.0482 35.0379 41.2087 35.316 41.2087H42.8332C43.2131 41.2087 43.521 40.9136 43.521 40.5496V33.3465C43.5209 33.0801 43.3533 32.8397 43.0963 32.7376ZM36.9764 39.8906L42.1451 34.9378V39.8906H36.9764Z" fill="url(#paint1_linear_8_519)" stroke="url(#paint2_linear_8_519)" stroke-width="0.25"/>
<path d="M48.0614 22.1728C47.8044 22.0708 47.5085 22.1272 47.3117 22.3156L45.2516 24.2897V10.8678C45.2516 10.5037 44.9437 10.2086 44.5637 10.2086H39.2786L41.1971 8.37031C41.1974 8.37005 41.1977 8.36968 41.1979 8.36943L43.0465 6.5981C43.4426 6.21859 43.6608 5.71376 43.6608 5.17698C43.6608 4.64022 43.4426 4.13555 43.0465 3.75587L40.9089 1.70757C40.5129 1.32805 39.986 1.11905 39.4257 1.11905C38.8656 1.11905 38.3388 1.32805 37.9427 1.70757L36.0932 3.47977L33.8584 5.62122L29.071 10.2086H7.71945V3.68798C7.71945 3.32391 7.41145 3.02887 7.03159 3.02887C4.04856 3.02905 1.62158 5.35442 1.62158 8.21296V36.2078C1.62158 36.2565 1.62744 36.3038 1.63788 36.3495C1.73288 37.5624 2.28052 38.6893 3.19575 39.5448C4.17405 40.4591 5.46548 40.9625 6.83223 40.9625H27.8514L23.8928 44.7559C23.6961 44.9443 23.6373 45.2277 23.7436 45.4741C23.8501 45.7204 24.101 45.881 24.3792 45.881H47.7982C48.178 45.881 48.486 45.586 48.486 45.2218V22.7818C48.486 22.5152 48.3184 22.2749 48.0614 22.1728ZM38.9156 2.6398C39.1968 2.37019 39.655 2.37019 39.9362 2.6398L42.0739 4.6882C42.3552 4.95772 42.3552 5.39652 42.0739 5.66613L40.7109 6.97226L37.5525 3.94593L38.9156 2.6398ZM36.5797 4.87808L39.738 7.90432L38.4759 9.11372L35.3177 6.08747L36.5797 4.87808ZM47.1104 30.1879H45.8414C45.4614 30.1879 45.1535 30.483 45.1535 30.847C45.1535 31.2111 45.4614 31.5061 45.8414 31.5061H47.1104V33.4923H45.8414C45.4614 33.4923 45.1535 33.7875 45.1535 34.1515C45.1535 34.5156 45.4614 34.8107 45.8414 34.8107H47.1104V36.7967H45.8414C45.4614 36.7967 45.1535 37.0917 45.1535 37.4559C45.1535 37.8199 45.4614 38.115 45.8414 38.115H47.1104V40.1012H45.8414C45.4614 40.1012 45.1535 40.3963 45.1535 40.7603C45.1535 41.1244 45.4614 41.4194 45.8414 41.4194H47.1104V44.5629H26.0398L32.9878 37.9055C33.2564 37.6479 33.2564 37.2307 32.9878 36.9733C32.9569 36.9437 32.9238 36.9181 32.8891 36.8953C32.6213 36.7196 32.2528 36.7454 32.0149 36.9733L29.2272 39.6445H6.83232C4.74612 39.6445 3.06669 38.0839 3.0006 36.0885C3.00454 35.9632 3.01469 35.839 3.03099 35.7162C3.03109 35.7155 3.03118 35.7149 3.03127 35.7141C3.03896 35.6558 3.0482 35.5977 3.05872 35.5401C3.05992 35.5335 3.0612 35.5267 3.06239 35.5203C3.072 35.4688 3.0828 35.4175 3.09461 35.3665C3.0979 35.3523 3.10138 35.3381 3.10486 35.324C3.11529 35.2808 3.12655 35.2379 3.13864 35.1952C3.14522 35.172 3.15209 35.1492 3.15914 35.1261C3.16921 35.0926 3.17964 35.0592 3.19072 35.0261C3.20179 34.9931 3.2136 34.9603 3.2256 34.9276C3.23391 34.9048 3.24216 34.8818 3.25112 34.8591C3.26788 34.8159 3.28564 34.7733 3.30394 34.7309C3.30915 34.7187 3.31429 34.7064 3.31969 34.6942C3.34321 34.6415 3.36765 34.5895 3.39346 34.5381C3.39455 34.5359 3.39556 34.5337 3.39666 34.5316C3.93469 33.4647 4.96946 32.6693 6.21127 32.4224C6.21475 32.4217 6.21823 32.4209 6.22171 32.4202C6.27864 32.4091 6.33612 32.3996 6.39397 32.3907C6.40358 32.3893 6.41319 32.3873 6.42298 32.3859C6.47525 32.3783 6.52807 32.3724 6.58088 32.3667C6.59571 32.3651 6.61044 32.3629 6.62537 32.3615C6.67634 32.3566 6.72779 32.3533 6.77923 32.3502C6.79552 32.3492 6.81182 32.3476 6.82811 32.3469C6.89548 32.3436 6.96339 32.3419 7.03159 32.3419C7.41145 32.3419 7.71945 32.047 7.71945 31.6828V26.9037C7.71945 26.5397 7.41145 26.2447 7.03159 26.2447C6.65173 26.2447 6.34372 26.5397 6.34372 26.9037V31.0652C5.18218 31.206 4.10402 31.7024 3.25388 32.4979C3.16445 32.5815 3.07968 32.6686 2.99712 32.757V8.21296C2.99712 6.30613 4.44571 4.71713 6.34363 4.40332V24.2674C6.34363 24.6314 6.65163 24.9266 7.03149 24.9266C7.41135 24.9266 7.71936 24.6314 7.71936 24.2674V11.5269H27.6954L23.8927 15.1706C23.624 15.4281 23.624 15.8454 23.8927 16.1028C24.1613 16.36 24.5968 16.36 24.8655 16.1028L29.8423 11.3338C29.8422 11.3339 29.8425 11.3337 29.8423 11.3338L34.3447 7.01954L37.5029 10.0459L37.1323 10.4009C37.1321 10.4012 37.1317 10.4014 37.1315 10.4017L23.2618 23.6919L20.1036 20.6657L22.8374 18.0461C23.1061 17.7885 23.1061 17.3713 22.8374 17.1139C22.5688 16.8567 22.1333 16.8567 21.8647 17.1139L18.6443 20.1996C18.6271 20.2162 18.6111 20.2335 18.596 20.2514C18.5909 20.2575 18.5865 20.2638 18.5817 20.27C18.5719 20.2824 18.5624 20.2948 18.5535 20.3078C18.5485 20.3154 18.5439 20.3231 18.5391 20.3309C18.5316 20.3432 18.5243 20.3557 18.5176 20.3683C18.5132 20.3765 18.5093 20.385 18.5053 20.3935C18.4991 20.4064 18.4934 20.4196 18.4882 20.4327C18.4864 20.4374 18.4839 20.4418 18.4822 20.4463L17.1421 24.0841L16.2285 26.5644C16.2164 26.5973 16.2076 26.6309 16.2012 26.6647H13.9136C13.5338 26.6647 13.2258 26.9597 13.2258 27.3237C13.2258 27.6878 13.5338 27.9828 13.9136 27.9828H32.9627C33.3426 27.9828 33.6505 27.6878 33.6505 27.3237C33.6505 26.9597 33.3426 26.6647 32.9627 26.6647H19.2958L23.4907 25.2456C23.4942 25.2445 23.4975 25.2428 23.5009 25.2416C23.5173 25.2358 23.5332 25.2292 23.549 25.2223C23.5554 25.2195 23.5617 25.2168 23.5679 25.2139C23.5843 25.2061 23.6005 25.1974 23.6164 25.1881C23.6216 25.1851 23.6268 25.1824 23.6319 25.1794C23.6485 25.1692 23.6646 25.158 23.6805 25.1462C23.6844 25.1434 23.6885 25.1409 23.6923 25.1378C23.7114 25.1231 23.7302 25.1073 23.748 25.0902L37.9029 11.527H43.8759V25.608L34.0365 35.0362C33.7678 35.2938 33.7678 35.7109 34.0365 35.9683C34.0532 35.9844 34.0707 35.9995 34.0887 36.0135C34.2149 36.1121 34.369 36.1615 34.5229 36.1615C34.6769 36.1615 34.8309 36.1121 34.957 36.0135C34.975 35.9995 34.9925 35.9844 35.0092 35.9683L47.1104 24.3727V30.1879ZM22.0037 24.3505L20.0334 25.017L18.7206 23.7591L19.4162 21.8711L22.0037 24.3505Z" fill="url(#paint3_linear_8_519)"/>
<path d="M29.8423 11.3338L24.8655 16.1028C24.5968 16.36 24.1613 16.36 23.8927 16.1028C23.624 15.8454 23.624 15.4281 23.8927 15.1706L27.6954 11.5269H7.71936V24.2674C7.71936 24.6314 7.41135 24.9266 7.03149 24.9266C6.65163 24.9266 6.34363 24.6314 6.34363 24.2674V4.40332C4.44571 4.71713 2.99712 6.30613 2.99712 8.21296V32.757C3.07968 32.6686 3.16445 32.5815 3.25388 32.4979C4.10402 31.7024 5.18218 31.206 6.34372 31.0652V26.9037C6.34372 26.5397 6.65173 26.2447 7.03159 26.2447C7.41145 26.2447 7.71945 26.5397 7.71945 26.9037V31.6828C7.71945 32.047 7.41145 32.3419 7.03159 32.3419C6.96339 32.3419 6.89548 32.3436 6.82811 32.3469C6.81182 32.3476 6.79552 32.3492 6.77923 32.3502C6.72779 32.3533 6.67634 32.3566 6.62537 32.3615C6.61044 32.3629 6.59571 32.3651 6.58088 32.3667C6.52807 32.3724 6.47525 32.3783 6.42298 32.3859C6.41319 32.3873 6.40358 32.3893 6.39397 32.3907C6.33612 32.3996 6.27864 32.4091 6.22171 32.4202C6.21823 32.4209 6.21475 32.4217 6.21127 32.4224C4.96946 32.6693 3.93469 33.4647 3.39666 34.5316C3.39556 34.5337 3.39455 34.5359 3.39346 34.5381C3.36765 34.5895 3.34321 34.6415 3.31969 34.6942C3.31429 34.7064 3.30915 34.7187 3.30394 34.7309C3.28564 34.7733 3.26788 34.8159 3.25112 34.8591C3.24216 34.8818 3.23391 34.9048 3.2256 34.9276C3.2136 34.9603 3.20179 34.9931 3.19072 35.0261C3.17964 35.0592 3.16921 35.0926 3.15914 35.1261C3.15209 35.1492 3.14522 35.172 3.13864 35.1952C3.12655 35.2379 3.11529 35.2808 3.10486 35.324C3.10138 35.3381 3.0979 35.3523 3.09461 35.3665C3.0828 35.4175 3.072 35.4688 3.06239 35.5203C3.0612 35.5267 3.05992 35.5335 3.05872 35.5401C3.0482 35.5977 3.03896 35.6558 3.03127 35.7141C3.03118 35.7149 3.03109 35.7155 3.03099 35.7162C3.01469 35.839 3.00454 35.9632 3.0006 36.0885C3.06669 38.0839 4.74612 39.6445 6.83232 39.6445H29.2272L32.0148 36.9733C32.2528 36.7454 32.6213 36.7196 32.8891 36.8953C32.9238 36.9181 32.9569 36.9437 32.9878 36.9733C33.2564 37.2307 33.2564 37.6479 32.9878 37.9055L26.0398 44.5629H47.1104V41.4194H45.8413C45.4614 41.4194 45.1535 41.1244 45.1535 40.7603C45.1535 40.3963 45.4614 40.1012 45.8413 40.1012H47.1104V38.115H45.8413C45.4614 38.115 45.1535 37.8199 45.1535 37.4559C45.1535 37.0917 45.4614 36.7967 45.8413 36.7967H47.1104V34.8107H45.8413C45.4614 34.8107 45.1535 34.5156 45.1535 34.1515C45.1535 33.7875 45.4614 33.4923 45.8413 33.4923H47.1104V31.5061H45.8413C45.4614 31.5061 45.1535 31.2111 45.1535 30.847C45.1535 30.483 45.4614 30.1879 45.8413 30.1879H47.1104V24.3727L35.0092 35.9683C34.9925 35.9844 34.975 35.9995 34.957 36.0135C34.8309 36.1121 34.6769 36.1615 34.5229 36.1615C34.369 36.1615 34.2149 36.1121 34.0887 36.0135C34.0707 35.9995 34.0532 35.9844 34.0365 35.9683C33.7678 35.7109 33.7678 35.2938 34.0365 35.0362L43.8759 25.608V11.527H37.9029L23.748 25.0902C23.7302 25.1073 23.7114 25.1231 23.6923 25.1378C23.6885 25.1409 23.6844 25.1434 23.6805 25.1462C23.6646 25.158 23.6485 25.1692 23.6319 25.1794C23.6268 25.1824 23.6216 25.1851 23.6164 25.1881C23.6005 25.1974 23.5843 25.2061 23.5679 25.2139C23.5617 25.2168 23.5554 25.2195 23.549 25.2223C23.5332 25.2292 23.5173 25.2358 23.5009 25.2416C23.4975 25.2428 23.4942 25.2445 23.4907 25.2456L19.2958 26.6647H32.9627C33.3426 26.6647 33.6505 26.9597 33.6505 27.3237C33.6505 27.6878 33.3426 27.9828 32.9627 27.9828H13.9136C13.5338 27.9828 13.2258 27.6878 13.2258 27.3237C13.2258 26.9597 13.5338 26.6647 13.9136 26.6647H16.2012C16.2076 26.6309 16.2164 26.5973 16.2285 26.5644L17.1421 24.0841L18.4822 20.4463C18.4839 20.4418 18.4864 20.4374 18.4882 20.4327C18.4934 20.4196 18.4991 20.4064 18.5053 20.3935C18.5093 20.385 18.5132 20.3765 18.5176 20.3683C18.5243 20.3557 18.5316 20.3432 18.5391 20.3309C18.5439 20.3231 18.5485 20.3154 18.5535 20.3078C18.5624 20.2948 18.5719 20.2824 18.5817 20.27C18.5865 20.2638 18.5909 20.2574 18.596 20.2514C18.6111 20.2335 18.6271 20.2162 18.6443 20.1996L21.8647 17.1139C22.1333 16.8567 22.5688 16.8567 22.8374 17.1139C23.1061 17.3713 23.1061 17.7885 22.8374 18.0461L20.1036 20.6657L23.2618 23.6919L37.1315 10.4017C37.1317 10.4014 37.1321 10.4012 37.1323 10.4009L37.5029 10.0459L34.3447 7.01954L29.8423 11.3338ZM29.8423 11.3338C29.8425 11.3337 29.8422 11.3339 29.8423 11.3338ZM48.0614 22.1728C47.8044 22.0708 47.5085 22.1272 47.3117 22.3156L45.2516 24.2897V10.8678C45.2516 10.5037 44.9437 10.2086 44.5637 10.2086H39.2786L41.1971 8.37031C41.1974 8.37005 41.1977 8.36968 41.1979 8.36943L43.0465 6.5981C43.4426 6.21859 43.6607 5.71376 43.6607 5.17698C43.6607 4.64022 43.4426 4.13555 43.0465 3.75587L40.9089 1.70757C40.5129 1.32805 39.986 1.11905 39.4257 1.11905C38.8656 1.11905 38.3388 1.32805 37.9427 1.70757L36.0932 3.47977L33.8584 5.62122L29.071 10.2086H7.71945V3.68798C7.71945 3.32391 7.41145 3.02887 7.03159 3.02887C4.04856 3.02905 1.62158 5.35442 1.62158 8.21296V36.2078C1.62158 36.2565 1.62744 36.3038 1.63788 36.3495C1.73288 37.5624 2.28052 38.6893 3.19575 39.5448C4.17405 40.4591 5.46548 40.9625 6.83223 40.9625H27.8514L23.8928 44.7559C23.6961 44.9443 23.6373 45.2277 23.7436 45.4741C23.8501 45.7204 24.101 45.881 24.3792 45.881H47.7982C48.178 45.881 48.486 45.586 48.486 45.2218V22.7818C48.486 22.5152 48.3184 22.2749 48.0614 22.1728ZM38.9156 2.6398C39.1968 2.37019 39.655 2.37019 39.9362 2.6398L42.0739 4.6882C42.3552 4.95772 42.3552 5.39652 42.0739 5.66613L40.7109 6.97226L37.5525 3.94593L38.9156 2.6398ZM36.5797 4.87808L39.738 7.90432L38.4759 9.11372L35.3177 6.08747L36.5797 4.87808ZM22.0037 24.3505L20.0334 25.017L18.7206 23.7591L19.4162 21.8711L22.0037 24.3505Z" stroke="url(#paint4_linear_8_519)" stroke-width="0.25"/>
<defs>
<linearGradient id="paint0_linear_8_519" x1="4.27723" y1="1.11905" x2="42.7068" y2="45.548" gradientUnits="userSpaceOnUse">
<stop offset="0.259336" stop-color="#F37021"/>
<stop offset="1" stop-color="#F37021"/>
</linearGradient>
<linearGradient id="paint1_linear_8_519" x1="35.1319" y1="32.6874" x2="42.451" y2="41.122" gradientUnits="userSpaceOnUse">
<stop offset="0.259336" stop-color="#F37021"/>
<stop offset="1" stop-color="#F37021"/>
</linearGradient>
<linearGradient id="paint2_linear_8_519" x1="35.1319" y1="32.6874" x2="42.451" y2="41.122" gradientUnits="userSpaceOnUse">
<stop offset="0.259336" stop-color="#F37021"/>
<stop offset="1" stop-color="#F37021"/>
</linearGradient>
<linearGradient id="paint3_linear_8_519" x1="4.27723" y1="1.11905" x2="42.7068" y2="45.548" gradientUnits="userSpaceOnUse">
<stop offset="0.259336" stop-color="#F37021"/>
<stop offset="1" stop-color="#F37021"/>
</linearGradient>
<linearGradient id="paint4_linear_8_519" x1="4.27723" y1="1.11905" x2="42.7068" y2="45.548" gradientUnits="userSpaceOnUse">
<stop offset="0.259336" stop-color="#F37021"/>
<stop offset="1" stop-color="#F37021"/>
</linearGradient>
</defs>
</svg>
