<svg width="33" height="67" viewBox="0 0 33 67" fill="none" xmlns="http://www.w3.org/2000/svg">
<path d="M12.9719 59.7548C12.4156 59.7548 11.9647 60.262 11.9647 60.8876C11.9647 61.5132 12.4156 62.0204 12.9719 62.0204V59.7548ZM20.3504 62.0204C20.9067 62.0204 21.3576 61.5132 21.3576 60.8876C21.3576 60.262 20.9067 59.7548 20.3504 59.7548V62.0204ZM0.896851 49.2686C0.896851 49.8942 1.34778 50.4014 1.90402 50.4014C2.46028 50.4014 2.9112 49.8942 2.9112 49.2686H0.896851ZM2.9112 54.2482C2.9112 53.6224 2.46028 53.1153 1.90402 53.1153C1.34778 53.1153 0.896851 53.6224 0.896851 54.2482H2.9112ZM30.4112 12.7518C30.4112 13.3775 30.8621 13.8847 31.4183 13.8847C31.9745 13.8847 32.4255 13.3775 32.4255 12.7518H30.4112ZM32.4255 17.7314C32.4255 17.1058 31.9745 16.5985 31.4183 16.5985C30.8621 16.5985 30.4112 17.1058 30.4112 17.7314H32.4255ZM27.8212 64.7342H5.50108V67H27.8212V64.7342ZM5.50108 2.26571H10.0205V0H5.50108V2.26571ZM9.0133 2.8342H11.0276V1.13285H9.0133V2.8342ZM11.4593 5.5854H21.8632V3.3197H11.4593V5.5854ZM10.0205 2.26571H23.3018V0H10.0205V2.26571ZM23.3018 2.26571H27.8212V0H23.3018V2.26571ZM24.3091 2.8342V1.13285H22.2947V2.8342H24.3091ZM12.9719 62.0204H20.3504V59.7548H12.9719V62.0204ZM2.9112 49.2686V5.17875H0.896851V49.2686H2.9112ZM2.9112 61.8212V54.2482H0.896851V61.8212H2.9112ZM30.4112 5.17875V12.7518H32.4255V5.17875H30.4112ZM30.4112 17.7314V61.8212H32.4255V17.7314H30.4112ZM21.8632 5.5854C23.214 5.5854 24.3091 4.35366 24.3091 2.8342H22.2947C22.2947 3.10233 22.1016 3.3197 21.8632 3.3197V5.5854ZM5.50108 64.7342C4.07074 64.7342 2.9112 63.4301 2.9112 61.8212H0.896851C0.896851 64.6813 2.95824 67 5.50108 67V64.7342ZM27.8212 67C30.3641 67 32.4255 64.6813 32.4255 61.8212H30.4112C30.4112 63.4301 29.2516 64.7342 27.8212 64.7342V67ZM27.8212 2.26571C29.2516 2.26571 30.4112 3.56991 30.4112 5.17875H32.4255C32.4255 2.3186 30.3641 0 27.8212 0V2.26571ZM9.0133 2.8342C9.0133 4.35366 10.1084 5.5854 11.4593 5.5854V3.3197C11.2209 3.3197 11.0276 3.10233 11.0276 2.8342H9.0133ZM5.50108 0C2.95824 0 0.896851 2.3186 0.896851 5.17875H2.9112C2.9112 3.56991 4.07074 2.26571 5.50108 2.26571V0Z" fill="url(#paint0_linear_8_544)"/>
<defs>
<linearGradient id="paint0_linear_8_544" x1="2.68348" y1="1.35128e-06" x2="50.2501" y2="24.7172" gradientUnits="userSpaceOnUse">
<stop offset="0.259336" stop-color="#F37021"/>
<stop offset="1" stop-color="#F37021"/>
</linearGradient>
</defs>
</svg>
