<svg width="52" height="45" viewBox="0 0 52 45" fill="none" xmlns="http://www.w3.org/2000/svg">
<path opacity="0.15" fill-rule="evenodd" clip-rule="evenodd" d="M4.09556 0.900146C2.67161 0.900146 1.51727 2.18957 1.51727 3.78015V39.7801C1.51727 41.3708 2.67161 42.6601 4.09556 42.6601H47.9264C49.3504 42.6601 50.5047 41.3708 50.5047 39.7801V3.78015C50.5047 2.18957 49.3504 0.900146 47.9264 0.900146H4.09556ZM46.6373 12.4201H5.3847V39.7801H46.6373V12.4201Z" fill="url(#paint0_linear_8_528)"/>
<path d="M48.722 0H3.29981C1.60616 0 0.228027 1.5394 0.228027 3.43125V41.5688C0.228027 43.4606 1.60616 45 3.29981 45H48.722C50.4156 45 51.7937 43.4606 51.7937 41.5688V3.43125C51.7937 1.5394 50.4156 0 48.722 0ZM49.7794 41.5688C49.7794 42.2201 49.305 42.75 48.722 42.75H3.29981C2.71677 42.75 2.24231 42.2201 2.24231 41.5688V3.43125C2.24231 2.77998 2.71677 2.25 3.29981 2.25H48.722C49.305 2.25 49.7794 2.77998 49.7794 3.43125V41.5688Z" fill="url(#paint1_linear_8_528)"/>
<path d="M19.4648 7.7998H45.449C46.0053 7.7998 46.4562 7.29619 46.4562 6.6748C46.4562 6.05386 46.0053 5.5498 45.449 5.5498H19.4648C18.9085 5.5498 18.4576 6.05386 18.4576 6.6748C18.4576 7.29619 18.9085 7.7998 19.4648 7.7998Z" fill="url(#paint2_linear_8_528)"/>
<path d="M5.37466 7.10562C5.39983 7.1733 5.43091 7.23835 5.46711 7.29899C5.5033 7.36095 5.54579 7.41852 5.59221 7.46993C5.77949 7.68043 6.03913 7.79996 6.3039 7.79996C6.37039 7.79996 6.43608 7.79293 6.50139 7.77843C6.56591 7.76393 6.62926 7.74239 6.68984 7.71427C6.75043 7.68614 6.80866 7.65143 6.86295 7.61099C6.91842 7.56924 6.96996 7.52178 7.01598 7.47037C7.06359 7.41852 7.10489 7.36095 7.14188 7.29942C7.17846 7.23835 7.20954 7.1733 7.23472 7.10562C7.2599 7.03708 7.27918 6.96632 7.29217 6.89512C7.30515 6.82217 7.31104 6.74791 7.31104 6.67496C7.31104 6.60158 7.30515 6.5273 7.29217 6.45568C7.27918 6.38361 7.2599 6.31241 7.23472 6.24518C7.20954 6.17662 7.17846 6.11114 7.14188 6.05051C7.10489 5.98854 7.06359 5.9314 7.01598 5.87955C6.96996 5.82769 6.91842 5.78068 6.86295 5.73981C6.80866 5.69938 6.75043 5.66466 6.68984 5.63653C6.62926 5.60841 6.56591 5.58687 6.50139 5.57237C6.37158 5.54293 6.23781 5.54293 6.10759 5.57237C6.04306 5.58687 5.97973 5.60841 5.91954 5.63653C5.85777 5.66466 5.79954 5.69938 5.74526 5.73981C5.68979 5.78068 5.63825 5.82769 5.59221 5.87955C5.54579 5.9314 5.5033 5.98854 5.46711 6.05051C5.43091 6.11114 5.39983 6.17662 5.37466 6.24518C5.34948 6.31241 5.33019 6.38361 5.31721 6.45568C5.30384 6.5273 5.29675 6.60158 5.29675 6.67496C5.29675 6.74791 5.30384 6.82217 5.31721 6.89512C5.33019 6.96632 5.34948 7.03708 5.37466 7.10562Z" fill="url(#paint3_linear_8_528)"/>
<path d="M9.40316 7.10562C9.42834 7.1733 9.45942 7.23835 9.49562 7.29899C9.5318 7.36095 9.57429 7.41852 9.62071 7.46993C9.80799 7.68043 10.0676 7.79996 10.3324 7.79996C10.3989 7.79996 10.4646 7.79293 10.5299 7.77843C10.5944 7.76393 10.6578 7.74239 10.7183 7.71427C10.7789 7.68614 10.8372 7.65143 10.8914 7.61099C10.9469 7.56924 10.9985 7.52178 11.0457 7.47037C11.0921 7.41852 11.1334 7.36095 11.1704 7.29942C11.207 7.23835 11.238 7.1733 11.2632 7.10562C11.2884 7.03708 11.3077 6.96632 11.3207 6.89512C11.3337 6.82217 11.3395 6.74791 11.3395 6.67496C11.3395 6.60158 11.3337 6.5273 11.3207 6.45568C11.3077 6.38361 11.2884 6.31241 11.2632 6.24518C11.238 6.17662 11.207 6.11114 11.1704 6.05051C11.1334 5.98854 11.0921 5.9314 11.0457 5.87955C10.9985 5.82769 10.9469 5.78068 10.8914 5.73981C10.8372 5.69938 10.7789 5.66466 10.7183 5.63653C10.6578 5.60841 10.5944 5.58687 10.5299 5.57237C10.4001 5.54293 10.2663 5.54293 10.1361 5.57237C10.0716 5.58687 10.0082 5.60841 9.94804 5.63653C9.88628 5.66466 9.82805 5.69938 9.77376 5.73981C9.71829 5.78068 9.66675 5.82769 9.62071 5.87955C9.57429 5.9314 9.5318 5.98854 9.49562 6.05051C9.45942 6.11114 9.42834 6.17662 9.40316 6.24518C9.37798 6.31241 9.3587 6.38361 9.34572 6.45568C9.33235 6.5273 9.32526 6.60158 9.32526 6.67496C9.32526 6.74791 9.33235 6.82217 9.34572 6.89512C9.3587 6.96632 9.37798 7.03708 9.40316 7.10562Z" fill="url(#paint4_linear_8_528)"/>
<path d="M13.4316 7.10562C13.4567 7.1733 13.4878 7.23835 13.524 7.29899C13.5602 7.36095 13.6028 7.41852 13.6492 7.46993C13.6952 7.52178 13.7468 7.56924 13.8022 7.61056C13.8565 7.65143 13.9147 7.68614 13.9765 7.71427C14.0367 7.74239 14.1 7.76393 14.1646 7.77843C14.229 7.79293 14.2955 7.79953 14.3608 7.79953C14.4273 7.79953 14.493 7.79293 14.5583 7.77843C14.6229 7.76393 14.6862 7.74239 14.7467 7.71427C14.8073 7.68614 14.8656 7.65143 14.921 7.61056C14.9753 7.56924 15.0269 7.52178 15.0741 7.46993C15.1205 7.41852 15.1619 7.36095 15.1988 7.29899C15.2353 7.23835 15.2664 7.1733 15.2917 7.10562C15.3168 7.03708 15.3361 6.96632 15.349 6.89512C15.3621 6.82217 15.368 6.74791 15.368 6.67453C15.368 6.60158 15.3621 6.5273 15.349 6.45523C15.3361 6.38316 15.3168 6.31241 15.2917 6.24518C15.2664 6.17619 15.2353 6.11114 15.1988 6.05051C15.1619 5.98854 15.1205 5.93097 15.0741 5.87955C15.0269 5.82769 14.9753 5.78023 14.921 5.73981C14.8656 5.69938 14.8073 5.66466 14.7467 5.63653C14.6862 5.60841 14.6229 5.58687 14.5583 5.57237C14.4285 5.54293 14.2948 5.54293 14.1646 5.57237C14.1 5.58687 14.0367 5.60841 13.9765 5.63653C13.9147 5.66466 13.8565 5.69938 13.8022 5.73981C13.7468 5.78023 13.6952 5.82769 13.6492 5.87955C13.6028 5.93097 13.5602 5.98854 13.524 6.05051C13.4878 6.11114 13.4567 6.17619 13.4316 6.24518C13.4064 6.31241 13.3871 6.38316 13.3742 6.45523C13.3608 6.5273 13.3537 6.60158 13.3537 6.67453C13.3537 6.74791 13.3608 6.82217 13.3742 6.89512C13.3871 6.96632 13.4064 7.03708 13.4316 7.10562Z" fill="url(#paint5_linear_8_528)"/>
<path d="M29.5115 19.2443C29.0327 18.9278 28.415 19.1053 28.1318 19.6402L22.1562 30.9276C21.8729 31.4624 22.0315 32.1523 22.5102 32.4683C22.6711 32.5747 22.8479 32.6256 23.0222 32.6256C23.3664 32.6256 23.7019 32.4278 23.89 32.0728L29.8656 20.7854C30.1488 20.2506 29.9902 19.5607 29.5115 19.2443Z" fill="url(#paint6_linear_8_528)"/>
<path d="M16.9575 22.5507V21.4147C16.9575 20.7858 17.4154 20.2739 17.9784 20.2739H17.9925C18.5488 20.2739 18.9996 19.7702 18.9996 19.1489C18.9996 18.5279 18.5488 18.0239 17.9925 18.0239H17.9784C16.3048 18.0239 14.9432 19.5453 14.9432 21.4147V22.5507C14.9432 22.9598 14.7929 23.3588 14.5309 23.645L13.2259 25.071C13.0335 25.2811 12.9246 25.5684 12.923 25.869C12.9218 26.1696 13.028 26.4583 13.2185 26.671L14.5482 28.1559C14.8047 28.442 14.9471 28.8226 14.9499 29.2277L14.957 30.4068C14.9687 32.2635 16.3303 33.7744 17.9925 33.7744C18.5488 33.7744 18.9996 33.2702 18.9996 32.6493C18.9996 32.0279 18.5488 31.5244 17.9925 31.5244C17.433 31.5244 16.9751 31.0159 16.9713 30.3914L16.9642 29.2124C16.9579 28.2118 16.6053 27.2713 15.9723 26.5647L15.3626 25.884L15.9397 25.2533C16.5865 24.5463 16.9575 23.5614 16.9575 22.5507Z" fill="url(#paint7_linear_8_528)"/>
<path d="M35.0645 29.2476V30.3835C35.0645 31.0125 34.6066 31.5244 34.0436 31.5244H34.0294C33.4732 31.5244 33.0222 32.028 33.0222 32.6493C33.0222 33.2703 33.4732 33.7744 34.0294 33.7744H34.0436C35.7172 33.7744 37.0788 32.2531 37.0788 30.3835V29.2476C37.0788 28.8385 37.2291 28.4395 37.491 28.1534L38.796 26.7273C38.9884 26.5172 39.0974 26.2298 39.0986 25.9293C39.1001 25.6286 38.9939 25.3399 38.8035 25.1272L37.4738 23.6424C37.2172 23.3563 37.0744 22.9753 37.0721 22.5705L37.0646 21.3914C37.0532 19.5348 35.6916 18.0244 34.0294 18.0244C33.4732 18.0244 33.0222 18.528 33.0222 19.1493C33.0222 19.7703 33.4732 20.2744 34.0294 20.2744C34.5884 20.2744 35.0468 20.7824 35.0503 21.4068L35.0578 22.5859C35.0641 23.5861 35.4162 24.5266 36.0496 25.2336L36.6594 25.9143L36.0823 26.5449C35.4355 27.2516 35.0645 28.2369 35.0645 29.2476Z" fill="url(#paint8_linear_8_528)"/>
<path d="M46.6942 11.1748H5.32739C4.7711 11.1748 4.32025 11.6789 4.32025 12.2998V39.2999C4.32025 39.9212 4.7711 40.4248 5.32739 40.4248H17.3159C17.8722 40.4248 18.3231 39.9212 18.3231 39.2999C18.3231 38.6789 17.8722 38.1748 17.3159 38.1748H6.33454V13.4248H45.6871V38.1748H25.4064C24.8502 38.1748 24.3994 38.6789 24.3994 39.2999C24.3994 39.9212 24.8502 40.4248 25.4064 40.4248H46.6942C47.2504 40.4248 47.7014 39.9212 47.7014 39.2999V12.2998C47.7014 11.6789 47.2504 11.1748 46.6942 11.1748Z" fill="url(#paint9_linear_8_528)"/>
<defs>
<linearGradient id="paint0_linear_8_528" x1="4.29322" y1="0.900146" x2="39.3432" y2="46.3024" gradientUnits="userSpaceOnUse">
<stop offset="0.259336" stop-color="#F37021"/>
<stop offset="1" stop-color="#F37021"/>
</linearGradient>
<linearGradient id="paint1_linear_8_528" x1="3.15009" y1="6.75569e-07" x2="41.1343" y2="48.0639" gradientUnits="userSpaceOnUse">
<stop offset="0.259336" stop-color="#F37021"/>
<stop offset="1" stop-color="#F37021"/>
</linearGradient>
<linearGradient id="paint2_linear_8_528" x1="20.0443" y1="5.5498" x2="20.3267" y2="9.43337" gradientUnits="userSpaceOnUse">
<stop offset="0.259336" stop-color="#F37021"/>
<stop offset="1" stop-color="#F37021"/>
</linearGradient>
<linearGradient id="paint3_linear_8_528" x1="5.41091" y1="5.55029" x2="7.36255" y2="7.4799" gradientUnits="userSpaceOnUse">
<stop offset="0.259336" stop-color="#F37021"/>
<stop offset="1" stop-color="#F37021"/>
</linearGradient>
<linearGradient id="paint4_linear_8_528" x1="9.43941" y1="5.55029" x2="11.3911" y2="7.4799" gradientUnits="userSpaceOnUse">
<stop offset="0.259336" stop-color="#F37021"/>
<stop offset="1" stop-color="#F37021"/>
</linearGradient>
<linearGradient id="paint5_linear_8_528" x1="13.4678" y1="5.55029" x2="15.4191" y2="7.4799" gradientUnits="userSpaceOnUse">
<stop offset="0.259336" stop-color="#F37021"/>
<stop offset="1" stop-color="#F37021"/>
</linearGradient>
<linearGradient id="paint6_linear_8_528" x1="22.4685" y1="19.0875" x2="33.2141" y2="26.0908" gradientUnits="userSpaceOnUse">
<stop offset="0.259336" stop-color="#F37021"/>
<stop offset="1" stop-color="#F37021"/>
</linearGradient>
<linearGradient id="paint7_linear_8_528" x1="13.2673" y1="18.0239" x2="23.122" y2="22.2222" gradientUnits="userSpaceOnUse">
<stop offset="0.259336" stop-color="#F37021"/>
<stop offset="1" stop-color="#F37021"/>
</linearGradient>
<linearGradient id="paint8_linear_8_528" x1="33.3665" y1="18.0244" x2="43.2206" y2="22.2223" gradientUnits="userSpaceOnUse">
<stop offset="0.259336" stop-color="#F37021"/>
<stop offset="1" stop-color="#F37021"/>
</linearGradient>
<linearGradient id="paint9_linear_8_528" x1="6.7785" y1="11.1748" x2="29.3523" y2="48.1447" gradientUnits="userSpaceOnUse">
<stop offset="0.259336" stop-color="#F37021"/>
<stop offset="1" stop-color="#F37021"/>
</linearGradient>
</defs>
</svg>
