<svg width="193" height="70" viewBox="0 0 193 70" fill="none" xmlns="http://www.w3.org/2000/svg">
<path d="M70.9833 12.96V17.16H76.6233V19.824H70.9833V24.264H77.3433V27H67.6233V10.224H77.3433V12.96H70.9833ZM87.7407 27L85.0047 22.872L82.5807 27H78.9807L83.3247 20.328L78.9327 13.704H82.7247L85.4367 17.808L87.8847 13.704H91.4847L87.1167 20.328L91.5327 27H87.7407ZM96.7177 15.624C97.1497 15.016 97.7417 14.512 98.4937 14.112C99.2617 13.696 100.134 13.488 101.11 13.488C102.246 13.488 103.27 13.768 104.182 14.328C105.11 14.888 105.838 15.688 106.366 16.728C106.91 17.752 107.182 18.944 107.182 20.304C107.182 21.664 106.91 22.872 106.366 23.928C105.838 24.968 105.11 25.776 104.182 26.352C103.27 26.928 102.246 27.216 101.11 27.216C100.134 27.216 99.2697 27.016 98.5177 26.616C97.7817 26.216 97.1817 25.712 96.7177 25.104V33.336H93.3577V13.704H96.7177V15.624ZM103.75 20.304C103.75 19.504 103.582 18.816 103.246 18.24C102.926 17.648 102.494 17.2 101.95 16.896C101.422 16.592 100.846 16.44 100.222 16.44C99.6137 16.44 99.0377 16.6 98.4937 16.92C97.9657 17.224 97.5337 17.672 97.1977 18.264C96.8777 18.856 96.7177 19.552 96.7177 20.352C96.7177 21.152 96.8777 21.848 97.1977 22.44C97.5337 23.032 97.9657 23.488 98.4937 23.808C99.0377 24.112 99.6137 24.264 100.222 24.264C100.846 24.264 101.422 24.104 101.95 23.784C102.494 23.464 102.926 23.008 103.246 22.416C103.582 21.824 103.75 21.12 103.75 20.304ZM112.983 9.24V27H109.623V9.24H112.983ZM122.207 27.216C120.927 27.216 119.775 26.936 118.751 26.376C117.727 25.8 116.919 24.992 116.327 23.952C115.751 22.912 115.463 21.712 115.463 20.352C115.463 18.992 115.759 17.792 116.351 16.752C116.959 15.712 117.783 14.912 118.823 14.352C119.863 13.776 121.023 13.488 122.303 13.488C123.583 13.488 124.743 13.776 125.783 14.352C126.823 14.912 127.639 15.712 128.231 16.752C128.839 17.792 129.143 18.992 129.143 20.352C129.143 21.712 128.831 22.912 128.207 23.952C127.599 24.992 126.767 25.8 125.711 26.376C124.671 26.936 123.503 27.216 122.207 27.216ZM122.207 24.288C122.815 24.288 123.383 24.144 123.911 23.856C124.455 23.552 124.887 23.104 125.207 22.512C125.527 21.92 125.687 21.2 125.687 20.352C125.687 19.088 125.351 18.12 124.679 17.448C124.023 16.76 123.215 16.416 122.255 16.416C121.295 16.416 120.487 16.76 119.831 17.448C119.191 18.12 118.871 19.088 118.871 20.352C118.871 21.616 119.183 22.592 119.807 23.28C120.447 23.952 121.247 24.288 122.207 24.288ZM134.968 15.768C135.4 15.064 135.96 14.512 136.648 14.112C137.352 13.712 138.152 13.512 139.048 13.512V17.04H138.16C137.104 17.04 136.304 17.288 135.76 17.784C135.232 18.28 134.968 19.144 134.968 20.376V27H131.608V13.704H134.968V15.768ZM143.015 12.12C142.423 12.12 141.927 11.936 141.527 11.568C141.143 11.184 140.951 10.712 140.951 10.152C140.951 9.592 141.143 9.128 141.527 8.76C141.927 8.376 142.423 8.184 143.015 8.184C143.607 8.184 144.095 8.376 144.479 8.76C144.879 9.128 145.079 9.592 145.079 10.152C145.079 10.712 144.879 11.184 144.479 11.568C144.095 11.936 143.607 12.12 143.015 12.12ZM144.671 13.704V27H141.311V13.704H144.671ZM155.358 13.512C156.942 13.512 158.222 14.016 159.198 15.024C160.174 16.016 160.662 17.408 160.662 19.2V27H157.302V19.656C157.302 18.6 157.038 17.792 156.51 17.232C155.982 16.656 155.262 16.368 154.35 16.368C153.422 16.368 152.686 16.656 152.142 17.232C151.614 17.792 151.35 18.6 151.35 19.656V27H147.99V13.704H151.35V15.36C151.798 14.784 152.366 14.336 153.054 14.016C153.758 13.68 154.526 13.512 155.358 13.512ZM77.8953 53.808H71.2233L70.1193 57H66.5913L72.6153 40.224H76.5273L82.5513 57H78.9993L77.8953 53.808ZM76.9833 51.12L74.5593 44.112L72.1353 51.12H76.9833ZM83.939 50.352C83.939 48.976 84.219 47.776 84.779 46.752C85.339 45.712 86.115 44.912 87.107 44.352C88.099 43.776 89.235 43.488 90.515 43.488C92.163 43.488 93.523 43.904 94.595 44.736C95.683 45.552 96.411 46.704 96.779 48.192H93.155C92.963 47.616 92.635 47.168 92.171 46.848C91.723 46.512 91.163 46.344 90.491 46.344C89.531 46.344 88.771 46.696 88.211 47.4C87.651 48.088 87.371 49.072 87.371 50.352C87.371 51.616 87.651 52.6 88.211 53.304C88.771 53.992 89.531 54.336 90.491 54.336C91.851 54.336 92.739 53.728 93.155 52.512H96.779C96.411 53.952 95.683 55.096 94.595 55.944C93.507 56.792 92.147 57.216 90.515 57.216C89.235 57.216 88.099 56.936 87.107 56.376C86.115 55.8 85.339 55 84.779 53.976C84.219 52.936 83.939 51.728 83.939 50.352ZM98.3765 50.304C98.3765 48.96 98.6405 47.768 99.1685 46.728C99.7125 45.688 100.44 44.888 101.352 44.328C102.28 43.768 103.312 43.488 104.448 43.488C105.44 43.488 106.304 43.688 107.04 44.088C107.792 44.488 108.392 44.992 108.84 45.6V43.704H112.224V57H108.84V55.056C108.408 55.68 107.808 56.2 107.04 56.616C106.288 57.016 105.416 57.216 104.424 57.216C103.304 57.216 102.28 56.928 101.352 56.352C100.44 55.776 99.7125 54.968 99.1685 53.928C98.6405 52.872 98.3765 51.664 98.3765 50.304ZM108.84 50.352C108.84 49.536 108.68 48.84 108.36 48.264C108.04 47.672 107.608 47.224 107.064 46.92C106.52 46.6 105.936 46.44 105.312 46.44C104.688 46.44 104.112 46.592 103.584 46.896C103.056 47.2 102.624 47.648 102.288 48.24C101.968 48.816 101.808 49.504 101.808 50.304C101.808 51.104 101.968 51.808 102.288 52.416C102.624 53.008 103.056 53.464 103.584 53.784C104.128 54.104 104.704 54.264 105.312 54.264C105.936 54.264 106.52 54.112 107.064 53.808C107.608 53.488 108.04 53.04 108.36 52.464C108.68 51.872 108.84 51.168 108.84 50.352ZM114.642 50.304C114.642 48.96 114.906 47.768 115.434 46.728C115.978 45.688 116.714 44.888 117.642 44.328C118.57 43.768 119.602 43.488 120.738 43.488C121.602 43.488 122.426 43.68 123.21 44.064C123.994 44.432 124.618 44.928 125.082 45.552V39.24H128.49V57H125.082V55.032C124.666 55.688 124.082 56.216 123.33 56.616C122.578 57.016 121.706 57.216 120.714 57.216C119.594 57.216 118.57 56.928 117.642 56.352C116.714 55.776 115.978 54.968 115.434 53.928C114.906 52.872 114.642 51.664 114.642 50.304ZM125.106 50.352C125.106 49.536 124.946 48.84 124.626 48.264C124.306 47.672 123.874 47.224 123.33 46.92C122.786 46.6 122.202 46.44 121.578 46.44C120.954 46.44 120.378 46.592 119.85 46.896C119.322 47.2 118.89 47.648 118.554 48.24C118.234 48.816 118.074 49.504 118.074 50.304C118.074 51.104 118.234 51.808 118.554 52.416C118.89 53.008 119.322 53.464 119.85 53.784C120.394 54.104 120.97 54.264 121.578 54.264C122.202 54.264 122.786 54.112 123.33 53.808C123.874 53.488 124.306 53.04 124.626 52.464C124.946 51.872 125.106 51.168 125.106 50.352ZM144.132 50.064C144.132 50.544 144.1 50.976 144.036 51.36H134.316C134.396 52.32 134.732 53.072 135.324 53.616C135.916 54.16 136.644 54.432 137.508 54.432C138.756 54.432 139.644 53.896 140.172 52.824H143.796C143.412 54.104 142.676 55.16 141.588 55.992C140.5 56.808 139.164 57.216 137.58 57.216C136.3 57.216 135.148 56.936 134.124 56.376C133.116 55.8 132.324 54.992 131.748 53.952C131.188 52.912 130.908 51.712 130.908 50.352C130.908 48.976 131.188 47.768 131.748 46.728C132.308 45.688 133.092 44.888 134.1 44.328C135.108 43.768 136.268 43.488 137.58 43.488C138.844 43.488 139.972 43.76 140.964 44.304C141.972 44.848 142.748 45.624 143.292 46.632C143.852 47.624 144.132 48.768 144.132 50.064ZM140.652 49.104C140.636 48.24 140.324 47.552 139.716 47.04C139.108 46.512 138.364 46.248 137.484 46.248C136.652 46.248 135.948 46.504 135.372 47.016C134.812 47.512 134.468 48.208 134.34 49.104H140.652ZM163.096 43.512C164.728 43.512 166.04 44.016 167.032 45.024C168.04 46.016 168.544 47.408 168.544 49.2V57H165.184V49.656C165.184 48.616 164.92 47.824 164.392 47.28C163.864 46.72 163.144 46.44 162.232 46.44C161.32 46.44 160.592 46.72 160.048 47.28C159.52 47.824 159.256 48.616 159.256 49.656V57H155.896V49.656C155.896 48.616 155.632 47.824 155.104 47.28C154.576 46.72 153.856 46.44 152.944 46.44C152.016 46.44 151.28 46.72 150.736 47.28C150.208 47.824 149.944 48.616 149.944 49.656V57H146.584V43.704H149.944V45.312C150.376 44.752 150.928 44.312 151.6 43.992C152.288 43.672 153.04 43.512 153.856 43.512C154.896 43.512 155.824 43.736 156.64 44.184C157.456 44.616 158.088 45.24 158.536 46.056C158.968 45.288 159.592 44.672 160.408 44.208C161.24 43.744 162.136 43.512 163.096 43.512ZM184.453 43.704L176.221 63.288H172.645L175.525 56.664L170.197 43.704H173.965L177.397 52.992L180.877 43.704H184.453Z" fill="white"/>
<path d="M61.187 34.6034L49.5596 39.7939C48.0347 47.1471 43.2693 52.9865 37.1697 55.3654L36.7885 51.2563C40.6007 49.5261 43.8412 45.8495 45.3661 41.5241C46.1285 39.3614 46.5098 36.9824 46.5098 34.6034C46.5098 32.2244 46.1285 29.8454 45.3661 27.6827C43.8412 23.3573 40.6007 19.6807 36.7885 17.9505C35.8354 17.518 35.0729 17.3017 34.1199 17.0854C32.9762 16.8692 31.8325 16.6529 30.6888 16.6529C29.5451 16.6529 28.4014 16.8692 27.2578 17.0854C26.3047 17.3017 25.5422 17.518 24.5892 17.9505C20.7769 19.6807 17.5365 23.3573 16.0116 27.6827C15.2491 29.8454 14.8679 32.2244 14.8679 34.6034C14.8679 36.9824 15.2491 39.3614 16.0116 41.5241C17.5365 45.8495 20.5863 49.3098 24.3986 51.2563L24.0173 55.3654C17.9177 52.7702 13.343 47.1471 11.8181 39.7939L0 34.6034L11.8181 29.4129C13.5336 21.4109 19.0614 15.139 26.1141 13.1926L27.8296 8.21831L30.6888 0L33.3574 7.56949L35.2635 12.9763C42.3163 14.9227 48.0347 21.1946 49.5596 29.1966L61.187 34.6034Z" fill="#FF5D17"/>
<path d="M48.9942 14.0509L43.657 16.8624L46.5162 20.1065L48.9942 14.0509Z" fill="#FFA114"/>
<path d="M48.9942 55.1548L46.5162 49.0992L43.657 52.5596L48.9942 55.1548Z" fill="#FFA114"/>
<path d="M12.593 55.3711L17.9302 52.5596L15.071 49.0992L12.593 55.3711Z" fill="#FFA114"/>
<path d="M12.593 14.0509L15.071 20.1065L17.9302 16.6462L12.593 14.0509Z" fill="#FFA114"/>
<path d="M36.421 62.516L30.7025 69.4367L24.9841 62.516L25.9372 49.5398L28.0339 23.8035L24.9841 19.478C26.1278 18.8292 27.2715 18.613 28.6058 18.3967C29.3682 18.1804 29.9401 18.1804 30.7025 18.1804C31.465 18.1804 32.0368 18.1804 32.7993 18.3967C34.1336 18.613 35.2773 19.0455 36.421 19.478L33.3711 23.8035L35.4679 49.5398L36.421 62.516Z" fill="#FFA114"/>
</svg>
