<svg width="50" height="43" viewBox="0 0 50 43" fill="none" xmlns="http://www.w3.org/2000/svg">
<path opacity="0.15" fill-rule="evenodd" clip-rule="evenodd" d="M1.05969 9.22374C1.05969 7.70936 2.15116 6.48169 3.49755 6.48169H45.9163C47.2628 6.48169 48.3542 7.70936 48.3542 9.22374V38C48.3542 39.5145 47.2628 40.7421 45.9163 40.7421H28.7426C33.8968 38.883 37.6276 33.4503 37.6276 27.038C37.6276 19.091 31.8974 12.6486 24.8288 12.6486C17.7603 12.6486 12.0301 19.091 12.0301 27.038C12.0301 33.4503 15.7609 38.883 20.9151 40.7421H3.49755C2.15116 40.7421 1.05969 39.5145 1.05969 38V9.22374ZM24.8288 33.8901C28.1948 33.8901 30.9235 30.8223 30.9235 27.038C30.9235 23.2537 28.1948 20.1859 24.8288 20.1859C21.4629 20.1859 18.7342 23.2537 18.7342 27.038C18.7342 30.8223 21.4629 33.8901 24.8288 33.8901Z" fill="url(#paint0_linear_8_549)"/>
<path d="M1.72606 29.3328C1.72606 29.6816 1.47437 29.9646 1.16421 29.9646C0.854053 29.9646 0.602356 29.6816 0.602356 29.3328V26.085C0.602356 25.7359 0.854004 25.4534 1.16421 25.4534C1.47442 25.4534 1.72606 25.7359 1.72606 26.085V29.3328Z" fill="url(#paint1_linear_8_549)" stroke="url(#paint2_linear_8_549)" stroke-width="0.25"/>
<path d="M46.4585 6.24238H43.5001V5.86347C43.5001 4.79032 42.7234 3.91666 41.7685 3.91666H41.4653V2.94681C41.4653 1.87324 40.6882 1 39.7337 1H36.3215C35.367 1 34.5899 1.87324 34.5899 2.94681V3.91666H34.2866C33.3318 3.91666 32.5551 4.7899 32.5551 5.86347V6.24238H22.389V5.40594C22.389 4.3328 21.6123 3.45912 20.6574 3.45912H19.2802C18.3257 3.45912 17.5486 4.33237 17.5486 5.40594V6.24238H15.8777V4.26211C15.8777 3.18896 15.101 2.3153 14.1461 2.3153H6.66465C5.71011 2.3153 4.93303 3.18896 4.93303 4.26211V6.24238H3.19919C1.68334 6.24238 0.450195 7.6292 0.450195 9.33303V22.5882C0.450195 23.0318 0.770104 23.391 1.16442 23.391C1.55873 23.391 1.87864 23.0318 1.87864 22.5882V14.9622H5.78749C6.10182 16.2562 7.15641 17.2106 8.40555 17.2106C9.65506 17.2106 10.7093 16.2562 11.0236 14.9622H16.6957C13.401 17.7468 11.2661 22.1766 11.2661 27.1567C11.2661 30.4263 12.1864 33.4584 13.7507 35.9439H1.87864V32.8299C1.87864 32.3862 1.55873 32.0269 1.16442 32.0269C0.770104 32.0269 0.450195 32.3862 0.450195 32.8299V37.8526C0.450195 39.5568 1.68334 40.9433 3.19919 40.9433H19.0378C20.795 41.8802 22.7583 42.405 24.8288 42.405C26.9001 42.405 28.8638 41.8798 30.6214 40.9421C30.627 40.9425 30.6323 40.9433 30.6379 40.9433H46.4585C47.9744 40.9433 49.2075 39.5568 49.2075 37.8526V9.33303C49.2075 7.6292 47.9744 6.24238 46.4585 6.24238ZM36.0182 2.94681C36.0182 2.75904 36.1544 2.60596 36.3219 2.60596H39.7337C39.9008 2.60596 40.0369 2.75861 40.0369 2.94681V3.91666H36.0187L36.0182 2.94681ZM33.9835 5.86347C33.9835 5.67569 34.1196 5.52262 34.2871 5.52262H41.7685C41.9355 5.52262 42.0717 5.67569 42.0717 5.86347V6.24238H33.9838L33.9835 5.86347ZM18.9771 5.40594C18.9771 5.21817 19.1132 5.06509 19.2802 5.06509H20.6574C20.8247 5.06509 20.9605 5.21817 20.9605 5.40594V6.24238H18.9771V5.40594ZM6.36147 4.26211C6.36147 4.07433 6.49762 3.92126 6.66465 3.92126H14.1465C14.3135 3.92126 14.4496 4.07433 14.4496 4.26211V6.24238H6.36147V4.26211ZM8.40555 15.6046C7.69691 15.6046 7.11995 14.9563 7.11995 14.1594C7.11995 13.3626 7.69691 12.7139 8.40555 12.7139C9.11456 12.7139 9.69114 13.3626 9.69114 14.1594C9.69114 14.9563 9.11456 15.6046 8.40555 15.6046ZM11.0236 13.3563C10.7093 12.0623 9.65506 11.1079 8.40555 11.1079C7.15603 11.1079 6.10182 12.0623 5.78749 13.3563H1.87864V9.33303C1.87864 8.51457 2.47121 7.84835 3.19919 7.84835H46.4585C47.1866 7.84835 47.7791 8.51457 47.7791 9.33303V13.3563H45.6535V10.4388C45.6535 9.99548 45.3337 9.63582 44.9393 9.63582H38.2923C37.8979 9.63582 37.5781 9.99548 37.5781 10.4388V13.3563H30.5902C28.8058 12.4145 26.8413 11.9088 24.8288 11.9088C22.7688 11.9088 20.8151 12.4287 19.0649 13.3563H11.0236ZM39.0064 13.3563V11.2418H44.225V13.3563H39.0064ZM3.19919 39.3373C2.47121 39.3373 1.87864 38.6711 1.87864 37.8526V37.5499H14.9146C15.4551 38.2014 16.0454 38.7999 16.6789 39.3373H3.19919ZM12.6946 27.1571C12.6946 19.6346 18.1382 13.5148 24.8288 13.5148C28.2991 13.5148 31.6106 15.1917 33.9147 18.1156C34.1762 18.4477 34.6274 18.4786 34.9228 18.1843C35.2181 17.8902 35.2453 17.3829 34.9838 17.0507C34.3711 16.2733 33.6941 15.5758 32.9665 14.9622H47.7791V35.9439H35.9071C36.9978 34.2108 37.7745 32.2117 38.1453 30.0516H40.0138C41.0673 30.0516 41.9247 29.0879 41.9247 27.9032V25.9029C41.9247 24.7181 41.0676 23.7545 40.0138 23.7545H38.0479C37.7882 22.4768 37.385 21.2377 36.8437 20.0792C36.6604 19.6865 36.2285 19.535 35.8795 19.7418C35.5303 19.9478 35.3956 20.4329 35.5789 20.8257C36.4843 22.7646 36.9631 24.954 36.9631 27.1571C36.9631 34.6795 31.5198 40.7994 24.8288 40.7994C18.1382 40.7994 12.6946 34.6791 12.6946 27.1571ZM38.2959 25.3601H40.0138C40.2797 25.3601 40.4963 25.6035 40.4963 25.9025V27.9032C40.4963 28.2022 40.2797 28.4457 40.0138 28.4457H38.3425C38.3744 28.0207 38.3916 27.5908 38.3916 27.1567C38.3916 26.5558 38.3592 25.9557 38.2959 25.3601ZM46.4585 39.3373H32.9787C33.6123 38.7999 34.2026 38.2014 34.7431 37.5499H47.7791V37.8526C47.7791 38.6711 47.1866 39.3373 46.4585 39.3373Z" fill="url(#paint3_linear_8_549)" stroke="url(#paint4_linear_8_549)" stroke-width="0.25"/>
<path d="M15.3713 27.1572C15.3713 21.2943 19.6136 16.5242 24.8285 16.5242C30.0433 16.5242 34.2857 21.2943 34.2857 27.1572C34.2857 33.0197 30.0433 37.7896 24.8285 37.7896C19.6136 37.7896 15.3713 33.0197 15.3713 27.1572ZM16.4949 27.1572C16.4949 32.3235 20.2332 36.5262 24.8285 36.5262C29.4237 36.5262 33.1619 32.3235 33.1619 27.1572C33.1619 21.9909 29.4237 17.7876 24.8285 17.7876C20.2332 17.7876 16.4949 21.9909 16.4949 27.1572Z" fill="url(#paint5_linear_8_549)" stroke="url(#paint6_linear_8_549)" stroke-width="0.25"/>
<path d="M18.2697 27.1572C18.2697 23.0909 21.2123 19.7825 24.8287 19.7825C28.4455 19.7825 31.3882 23.0909 31.3882 27.1572C31.3882 31.2234 28.4455 34.5314 24.8287 34.5314C21.2119 34.5314 18.2697 31.2234 18.2697 27.1572ZM19.3934 27.1572C19.3934 30.5269 21.8315 33.268 24.8287 33.268C27.8259 33.268 30.2644 30.5269 30.2644 27.1572C30.2644 23.7871 27.8259 21.0459 24.8287 21.0459C21.8315 21.0459 19.3934 23.7871 19.3934 27.1572Z" fill="url(#paint7_linear_8_549)" stroke="url(#paint8_linear_8_549)" stroke-width="0.25"/>
<defs>
<linearGradient id="paint0_linear_8_549" x1="3.73972" y1="6.48169" x2="31.0046" y2="48.0429" gradientUnits="userSpaceOnUse">
<stop offset="0.259336" stop-color="#F37021"/>
<stop offset="1" stop-color="#F37021"/>
</linearGradient>
<linearGradient id="paint1_linear_8_549" x1="0.666033" y1="25.4534" x2="2.66767" y2="26.0039" gradientUnits="userSpaceOnUse">
<stop offset="0.259336" stop-color="#F37021"/>
<stop offset="1" stop-color="#F37021"/>
</linearGradient>
<linearGradient id="paint2_linear_8_549" x1="0.666033" y1="25.4534" x2="2.66767" y2="26.0039" gradientUnits="userSpaceOnUse">
<stop offset="0.259336" stop-color="#F37021"/>
<stop offset="1" stop-color="#F37021"/>
</linearGradient>
<linearGradient id="paint3_linear_8_549" x1="3.21311" y1="1" x2="37.9312" y2="46.145" gradientUnits="userSpaceOnUse">
<stop offset="0.259336" stop-color="#F37021"/>
<stop offset="1" stop-color="#F37021"/>
</linearGradient>
<linearGradient id="paint4_linear_8_549" x1="3.21311" y1="1" x2="37.9312" y2="46.145" gradientUnits="userSpaceOnUse">
<stop offset="0.259336" stop-color="#F37021"/>
<stop offset="1" stop-color="#F37021"/>
</linearGradient>
<linearGradient id="paint5_linear_8_549" x1="16.4431" y1="16.5242" x2="34.8896" y2="34.6418" gradientUnits="userSpaceOnUse">
<stop offset="0.259336" stop-color="#F37021"/>
<stop offset="1" stop-color="#F37021"/>
</linearGradient>
<linearGradient id="paint6_linear_8_549" x1="16.4431" y1="16.5242" x2="34.8896" y2="34.6418" gradientUnits="userSpaceOnUse">
<stop offset="0.259336" stop-color="#F37021"/>
<stop offset="1" stop-color="#F37021"/>
</linearGradient>
<linearGradient id="paint7_linear_8_549" x1="19.0131" y1="19.7825" x2="31.8068" y2="32.3484" gradientUnits="userSpaceOnUse">
<stop offset="0.259336" stop-color="#F37021"/>
<stop offset="1" stop-color="#F37021"/>
</linearGradient>
<linearGradient id="paint8_linear_8_549" x1="19.0131" y1="19.7825" x2="31.8068" y2="32.3484" gradientUnits="userSpaceOnUse">
<stop offset="0.259336" stop-color="#F37021"/>
<stop offset="1" stop-color="#F37021"/>
</linearGradient>
</defs>
</svg>
