<svg width="14" height="28" viewBox="0 0 14 28" fill="none" xmlns="http://www.w3.org/2000/svg">
<path d="M5.04629 24.9721C4.81383 24.9721 4.62538 25.1841 4.62538 25.4456C4.62538 25.707 4.81383 25.919 5.04629 25.919V24.9721ZM8.12986 25.919C8.3623 25.919 8.55075 25.707 8.55075 25.4456C8.55075 25.1841 8.3623 24.9721 8.12986 24.9721V25.919ZM0 20.5899C0 20.8513 0.188448 21.0633 0.420908 21.0633C0.653372 21.0633 0.841818 20.8513 0.841818 20.5899H0ZM0.841818 22.6709C0.841818 22.4094 0.653372 22.1974 0.420908 22.1974C0.188448 22.1974 0 22.4094 0 22.6709H0.841818ZM12.3344 5.32912C12.3344 5.59059 12.5228 5.80255 12.7552 5.80255C12.9877 5.80255 13.1761 5.59059 13.1761 5.32912H12.3344ZM13.1761 7.41013C13.1761 7.14868 12.9877 6.93669 12.7552 6.93669C12.5228 6.93669 12.3344 7.14868 12.3344 7.41013H13.1761ZM11.252 27.0531H1.92416V28H11.252V27.0531ZM1.92416 0.946862H3.81285V0H1.92416V0.946862ZM3.39195 1.18444H4.23376V0.47343H3.39195V1.18444ZM4.41416 2.3342H8.76204V1.38734H4.41416V2.3342ZM3.81285 0.946862H9.36328V0H3.81285V0.946862ZM9.36328 0.946862H11.252V0H9.36328V0.946862ZM9.78424 1.18444V0.47343H8.94239V1.18444H9.78424ZM5.04629 25.919H8.12986V24.9721H5.04629V25.919ZM0.841818 20.5899V2.16425H0V20.5899H0.841818ZM0.841818 25.8357V22.6709H0V25.8357H0.841818ZM12.3344 2.16425V5.32912H13.1761V2.16425H12.3344ZM12.3344 7.41013V25.8357H13.1761V7.41013H12.3344ZM8.76204 2.3342C9.32656 2.3342 9.78424 1.81944 9.78424 1.18444H8.94239C8.94239 1.2965 8.86167 1.38734 8.76204 1.38734V2.3342ZM1.92416 27.0531C1.3264 27.0531 0.841818 26.5081 0.841818 25.8357H0C0 27.031 0.861478 28 1.92416 28V27.0531ZM11.252 28C12.3147 28 13.1761 27.031 13.1761 25.8357H12.3344C12.3344 26.5081 11.8497 27.0531 11.252 27.0531V28ZM11.252 0.946862C11.8497 0.946862 12.3344 1.4919 12.3344 2.16425H13.1761C13.1761 0.968968 12.3147 0 11.252 0V0.946862ZM3.39195 1.18444C3.39195 1.81944 3.8496 2.3342 4.41416 2.3342V1.38734C4.31453 1.38734 4.23376 1.2965 4.23376 1.18444H3.39195ZM1.92416 0C0.861478 0 0 0.968968 0 2.16425H0.841818C0.841818 1.4919 1.3264 0.946862 1.92416 0.946862V0Z" fill="url(#paint0_linear_24_210)"/>
<defs>
<linearGradient id="paint0_linear_24_210" x1="0.746649" y1="5.64715e-07" x2="20.6252" y2="10.3296" gradientUnits="userSpaceOnUse">
<stop offset="0.259336" stop-color="#F37021"/>
<stop offset="1" stop-color="#F37021"/>
</linearGradient>
</defs>
</svg>
